<svg viewBox="0 0 250 250">
  <defs id="defs1"/>
  <path
    id="path1"
    d="m 207.85882,27.369104 c -3.109,0.05046 -172.009826,0.357239 -174.541824,0.357797 -2.532002,5.58e-4 -5.264913,1.287575 -5.224212,6.791077 0.0407,5.503498 5.047718,5.814826 5.047718,5.814826 l 12.357261,-3.29e-4 -0.01136,161.782405 c 0,0 -14.22687,0.0755 -16.011566,0.1295 -1.7847,0.054 -4.436666,0.97635 -4.386995,6.48656 0.04967,5.51022 4.567369,6.06538 4.567369,6.06538 0,0 178.031239,0.40828 181.903629,0.31145 3.87247,-0.0968 4.93921,-1.98264 4.92368,-6.5235 -0.0153,-4.47133 -2.38926,-6.63648 -4.52914,-6.63994 -2.13989,-0.003 -15.69616,-0.12825 -15.69616,-0.12825 L 196.4958,40.456652 c 0,0 8.98937,-0.09259 12.14914,-0.193024 3.15977,-0.100425 5.02484,-3.466765 5.02456,-6.676953 -2.7e-4,-3.210184 -1.87048,-6.217595 -4.98,-6.217576 z M 113.98999,40.637368 113.88391,98.808723 85.399984,61.984428 76.331247,41.064849 Z m 13.95835,0.06812 37.27205,0.201524 -8.53053,20.47431 -28.80284,37.406315 z m 54.57036,9.207687 0.0469,137.898035 -42.38431,-55.34799 27.40267,-63.240267 z m -123.329357,0.308398 14.96633,19.272982 27.908607,62.962275 -42.762117,55.90281 z m 48.766257,96.705447 6.10879,14.82661 -0.004,39.4862 -47.979362,-0.0641 z m 26.06248,0.0884 42.2274,54.3468 -48.3717,0.0403 -0.0786,-39.62662 z">
</svg>
